<?xml version="1.0" encoding="UTF-8"?>
<svg width="1182px" height="880px" viewBox="0 0 1182 880" version="1.1" xmlns="http://www.w3.org/2000/svg" xmlns:xlink="http://www.w3.org/1999/xlink">
    <!-- Generator: Sketch 63.1 (92452) - https://sketch.com -->
    <title>bg/vector map</title>
    <desc>Created with Sketch.</desc>
    <defs>
        <linearGradient x1="41.2305375%" y1="50%" x2="100%" y2="50%" id="linearGradient-1">
            <stop stop-color="#ECF0F1" offset="0%"></stop>
            <stop stop-color="#FFFFFF" offset="100%"></stop>
        </linearGradient>
    </defs>
    <g id="Page:-Homepage" stroke="none" stroke-width="1" fill="none" fill-rule="evenodd">
        <g id="Desktop-large/page/homepage/slider-2-MaaS" fill="url(#linearGradient-1)">
            <g id="Group-10" transform="translate(0.000000, -143.150000)">
                <g id="container/header/hero-image">
                    <g id="bg/vector-map" transform="translate(-224.000000, -93.850000)">
                        <path d="M1055.2798,1131.8231 L1094.30323,1148.74558 L1016.02556,1259.49461 L1002.32982,1252.87306 L1055.2798,1131.8231 Z M555.53555,1181.92278 L602.37936,1205.46681 L575.382267,1255.77041 L572.710205,1254.40072 C556.665661,1246.13826 540.536968,1237.13254 531.606105,1230.29482 L555.53555,1181.92278 Z M690.487403,1161.57637 L732.181868,1179.18229 L700.916061,1251.55547 L661.117309,1231.55414 L690.487403,1161.57637 Z M1020.93962,1116.93526 L1052.4676,1130.60411 L999.569162,1251.53979 L968.785126,1236.65643 L1020.93962,1116.93526 Z M989.938227,1103.49273 L1018.12742,1115.71627 L966.022226,1235.31868 L937.084605,1221.32492 L989.938227,1103.49273 Z M648.62712,1138.75388 L663.03991,1149.92872 L663.978803,1148.72093 L663.382752,1150.13263 L687.661761,1160.38427 L658.372335,1230.17605 L612.052871,1206.89644 L648.62712,1138.75388 Z M417.740128,1068.02544 L580.406129,1124.74219 L554.157461,1177.79748 L552.570979,1176.99976 L551.19289,1179.74249 L552.795058,1180.54694 L529.156916,1228.32516 C527.621972,1227.00757 526.416424,1225.79082 525.623183,1224.71076 C524.00561,1222.50105 522.616212,1219.06812 521.097715,1215.04695 L519.391958,1210.51819 C512.516479,1192.52645 500.325845,1166.80481 451.30275,1169.88299 C451.071948,1166.35598 450.558806,1162.97238 449.698341,1159.79494 L449.085179,1157.57223 C442.983467,1135.87985 429.116339,1098.03222 417.740128,1068.02544 Z M957.471354,1089.4183 L987.12603,1102.27374 L934.323946,1219.99164 L900.04203,1203.41424 L902.912488,1188.73704 L918.421027,1179.43326 L957.471354,1089.4183 Z M107.044998,1137.75672 L139.146621,1152.34205 L136.018471,1159.56414 L133.530523,1161.57879 C113.715148,1177.69636 86.5086641,1201.45167 71.6718144,1214.51962 L107.044998,1137.75672 Z M894.144259,1061.95736 L923.444889,1074.66491 L879.009932,1177.76387 L877.324855,1178.50557 L876.928234,1180.02707 L876.928234,1199.06934 L833.976684,1203.05572 L894.144259,1061.95736 Z M610.482074,1136.02459 L634.745397,1145.16927 L603.829155,1202.76217 L578.445434,1190.00309 L610.482074,1136.02459 Z M880.643471,1184.88287 L887.982074,1194.86337 L898.964208,1190.33697 L896.925085,1202.03391 L888.100836,1198.2044 L880.643471,1198.79597 L880.643471,1184.88287 Z M206.130693,1142.12851 L208.909278,1186.06825 C199.054264,1189.56613 189.306807,1193.78555 179.973898,1198.33212 L152.985768,1158.16364 C165.095022,1150.2021 182.88469,1144.84211 206.130693,1142.12851 Z M1116.88596,1122.10477 L1228.12125,1172.70864 L1213.69501,1197.16915 L1098.98201,1147.43471 L1116.88596,1122.10477 Z M926.259327,1075.82564 L954.659157,1088.16794 L915.998728,1177.29778 L900.844234,1186.39541 L889.174176,1191.00248 L880.643471,1179.14196 L880.643471,1178.14256 L882.229954,1178.14256 L882.144804,1178.12016 L926.259327,1075.82564 Z M583.307958,1125.78864 L607.564559,1134.92884 L575.693738,1188.62276 L556.897953,1179.17557 L583.307958,1125.78864 Z M268.303779,1136.08509 L279.07976,1170.78155 C269.779268,1173.6426 260.133274,1175.61745 250.344006,1176.64051 L248.244186,1176.84514 C236.408309,1177.914 224.104106,1180.8853 211.914184,1185.01956 L209.182655,1141.80584 C220.267866,1140.64287 232.509327,1140.04009 245.954094,1140.04009 C253.458515,1140.04009 261.20046,1138.37518 268.303779,1136.08509 Z M329.970446,1077.43453 L394.066134,1032.19513 L397.899508,1042.02708 C409.185653,1071.09826 433.196681,1133.9964 440.818072,1162.19259 C441.539608,1164.86361 441.972081,1167.72511 442.169271,1170.73001 C438.028282,1171.24316 433.665455,1171.93332 429.047178,1172.83412 C397.221172,1179.0456 377.448401,1179.15092 370.271136,1173.14111 C366.917627,1170.32995 366.620753,1166.34156 366.696248,1160.19144 L366.706032,1159.49915 C366.75757,1156.09314 366.815831,1152.5751 365.845567,1149.4223 C362.833939,1139.63003 336.874334,1113.67938 316.895409,1095.41467 L329.970446,1077.43453 Z M708.028343,1119.78331 L750.7715,1136.14783 L733.396378,1176.36785 L691.672783,1158.74849 L708.028343,1119.78331 Z M1159.84199,1061.33218 L1265.36997,1109.53616 L1229.68756,1170.05105 L1118.68756,1119.55923 L1159.84199,1061.33218 Z M311.459242,1102.88996 C321.388203,1112.05929 332.796088,1123.09969 341.750303,1132.60962 L340.739998,1133.66108 C332.783939,1141.82381 312.808395,1159.66838 282.001756,1169.84938 L271.207849,1135.10138 L272.728918,1134.55111 C285.796795,1129.72075 295.801565,1123.39024 296.468326,1122.963 L297.198825,1122.49467 L311.459242,1102.88996 Z M816.771863,1095.92333 L829.575763,1102.73086 L803.826793,1158.7216 L782.055233,1147.99267 L801.491885,1103.60029 L816.771863,1095.92333 Z M667.539426,1103.5129 L705.173571,1118.66067 L688.849382,1157.55638 L664.760841,1147.38766 L650.099322,1136.01338 L667.539426,1103.5129 Z M141.93641,1153.61258 L142.955971,1154.07643 L141.116279,1155.5083 L141.116279,1155.5083 L141.93641,1153.61258 Z M177.816013,1070.72783 L208.494731,1085.06668 L185.782037,1136.0089 C171.205669,1139.10344 156.842175,1144.06008 145.768169,1151.98129 L143.155402,1150.79591 L177.816013,1070.72783 Z M145.006298,1055.3896 L175.035187,1069.42817 L140.363372,1149.52986 L108.331214,1134.97366 L145.006298,1055.3896 Z M803.573583,1021.63651 L829.188106,1032.76877 L815.131601,1064.4917 L818.667575,1073.56468 L808.259084,1096.77035 L799.127846,1101.35726 L779.301296,1146.63699 L754.795967,1134.55911 L803.573583,1021.63651 Z M1098.39268,1033.26399 L1129.99685,1047.69919 L1100.71191,1114.74824 L1114.04688,1120.81407 L1096.11156,1146.18883 L1056.50775,1129.01538 L1098.39268,1033.26399 Z M604.956274,1082.03937 L658.827217,1100.2996 L636.206395,1142.44446 L584.672602,1123.02798 L604.956274,1082.03937 Z M210.450945,1088.215 L228.032219,1131.13742 L225.089875,1131.26363 C214.592073,1131.76053 202.061118,1132.85893 189.470385,1135.26496 L210.450945,1088.215 Z M772.894864,1008.29706 L800.763626,1020.41303 L751.98601,1133.33339 L729.08733,1124.56516 L772.894864,1008.29706 Z M107.605196,1037.90468 L136.668302,1051.49285 L99.9573643,1131.16655 L70.8875363,1117.95706 L107.605196,1037.90468 Z M236.049782,1032.25339 L265.57225,1127.30117 C259.244247,1129.35598 252.42775,1130.84163 245.954094,1130.84163 L242.036431,1130.84822 C239.001459,1130.86154 235.369888,1130.90176 231.303779,1131.02313 L212.178597,1084.34066 L235.305838,1032.46627 L236.049782,1032.25339 Z M1064.19592,1017.64341 L1095.60289,1031.98898 L1053.6978,1127.79639 L1022.16309,1114.1253 L1064.19592,1017.64341 Z M238.998668,1031.41085 L266.603016,1023.52774 L268.714834,1030.21307 C284.347348,1079.4461 287.314462,1082.8259 289.397604,1084.08612 L289.665274,1084.24207 C291.617006,1085.36022 297.315346,1090.12191 304.613614,1096.66279 L290.801357,1115.65352 L289.796863,1116.25373 C286.375229,1118.26893 278.188396,1122.81746 268.478561,1126.30402 L238.998668,1031.41085 Z M729.64977,1068.25848 L744.689983,1074.45652 L726.223595,1123.46493 L709.213723,1116.95319 L729.64977,1068.25848 Z M538.637718,1059.56195 L574.308927,1071.65328 L567.470022,1093.74304 L570.3965,1094.65056 L577.212997,1072.63699 L602.023074,1081.04445 L581.773014,1121.97481 L517.513748,1099.56686 L538.637718,1059.56195 Z M1132.7844,1048.97196 L1157.00515,1060.03252 L1115.84847,1118.26853 L1104.72965,1113.20882 L1132.7844,1048.97196 Z M693.597626,1053.39081 L726.817406,1067.08654 L706.358951,1115.83279 L669.000424,1100.79482 L670.11634,1098.71536 L693.597626,1053.39081 Z M1027.1018,1020.64383 L1054.59187,1032.0069 L1019.34866,1112.90407 L991.193072,1100.69622 L1027.1018,1020.64383 Z M820.23165,1077.56898 L821.7285,1081.4097 L836.466206,1087.75339 L830.861979,1099.94107 L816.812197,1092.47026 L812.595022,1094.59006 L820.23165,1077.56898 Z M993.35992,1006.69489 L1024.2672,1019.46966 L988.378634,1099.47947 L958.694828,1086.6061 L993.35992,1006.69489 Z M494.193798,1044.49485 L535.693314,1058.5648 L514.585029,1098.54506 L474.555475,1084.58715 L494.193798,1044.49485 Z M664.704821,961.26726 L718.795361,984.779918 L661.977774,1094.42648 L660.297178,1097.55911 L606.3254,1079.26974 L664.704821,961.26726 Z M312.270409,1016.95101 L322.008903,1072.74455 L310.025133,1089.22559 L306.649521,1086.2587 C301.24402,1081.5523 297.006117,1078.09183 294.910974,1076.68387 L294.680501,1076.30537 C291.831045,1071.36667 284.667258,1050.18794 275.720809,1021.76199 L312.270409,1016.95101 Z M961.715419,993.61313 L990.525315,1005.52295 L955.878149,1085.38487 L927.469356,1073.06946 L961.715419,993.61313 Z M832.000303,1033.99225 L856.324128,1044.56656 L837.7457,1084.96808 L824.119428,1079.10392 L818.452459,1064.56565 L832.000303,1033.99225 Z M458.356771,1032.35199 L491.262839,1043.50442 L471.642442,1083.57207 L460.380208,1079.64396 L458.356771,1032.35199 Z M221.554082,985.586604 L235.140019,1029.32467 L233.087452,1029.91176 L209.745094,1082.26344 L179.037246,1067.90891 L214.258055,986.53446 L217.417575,987.930475 L221.554082,985.586604 Z M416.33515,1018.10726 L455.244307,1031.29657 L457.267745,1078.55941 L416.321705,1064.28107 L413.505027,1056.90885 L413.505027,1056.90885 L435.803173,1044.08031 L434.272711,1041.42048 L412.393593,1054.00927 L403.39427,1030.78256 C402.817865,1029.30987 402.315178,1028.02868 401.89547,1026.96063 L416.33515,1018.10726 Z M607.053658,936.203973 L661.888142,960.039305 L603.39444,1078.27259 L540.087512,1056.81474 L602.973171,937.703064 L605.072796,938.471657 L607.053658,936.203973 Z M757.605923,1001.65086 L770.080426,1007.07358 L745.772287,1071.58382 L730.837391,1065.42836 L757.605923,1001.65086 Z M997.689135,900.673934 L924.659399,1070.98328 L895.325157,1057.83206 L960.651042,900.673934 L997.689135,900.673934 Z M348.994792,1012.11761 L354.572129,1048.8151 L324.632873,1069.94132 L315.311168,1016.5499 L348.994792,1012.11761 Z M183.075157,972.7715 L211.45258,985.297541 L176.25642,1066.60925 L146.288033,1052.60205 L183.075157,972.7715 Z M727.249879,988.454821 L754.793726,1000.42963 L728.002786,1064.25866 L695.016049,1050.66152 L727.249879,988.454821 Z M509.892805,1012.44029 L549.78343,1031.87022 L537.145349,1055.81759 L495.55172,1041.71851 L509.892805,1012.44029 Z M1168.5923,966.985768 L1194.30093,978.716328 L1160.92878,1051.71469 L1136.46827,1040.54209 L1168.5923,966.985768 Z M145.156432,956.032764 L174.656492,969.056262 L137.954518,1048.70531 L108.880208,1035.11713 L145.156432,956.032764 Z M394.234193,1006.16606 L391.919453,1022.45888 L357.370882,1046.83872 L352.037791,1011.71875 L394.234193,1006.16606 Z M866.17242,956.870821 L891.562863,967.953791 L857.608103,1041.78125 L833.241703,1031.18901 L866.17242,956.870821 Z M462.798026,989.492309 L507.132146,1011.09133 L492.623001,1040.72808 L458.217842,1029.06474 L456.685138,993.377846 L462.428295,989.859799 L462.798026,989.492309 Z M1134.23643,951.313651 L1165.80251,965.715237 L1133.67848,1039.26932 L1102.08103,1024.83412 L1134.23643,951.313651 Z M127.048571,948.042091 L142.348716,954.795845 L106.106105,1033.81971 L92.347626,1027.38639 L127.048571,948.042091 Z M837.044331,944.156553 L849.615189,949.644259 L839.919271,972.650497 L842.747154,973.840359 L852.427386,950.867733 L863.366945,955.645107 L830.429506,1029.96554 L818.719113,1024.87445 L824.200097,1009.68635 L835.675206,1001.7629 L833.934109,999.235283 L821.647832,1007.72117 L815.904675,1023.65098 L804.790334,1018.81983 L837.044331,944.156553 Z M1048.51708,972.894743 L1059.66951,1012.7159 L1058.63427,1015.10235 L1061.40613,1016.36616 L1055.81535,1029.19919 L1028.35441,1017.84732 L1048.51708,972.894743 Z M555.051538,920.209181 L600.06462,936.640928 L551.217539,1029.16109 L511.239523,1009.68187 L555.051538,920.209181 Z M224.28561,984.040455 L250.039062,969.44616 L255.733415,988.289658 C259.473837,1000.59746 262.773,1011.30188 265.691013,1020.61695 L238.088905,1028.48437 L224.28561,984.040455 Z M453.698159,995.208576 L455.103137,1028.00933 L419.738917,1016.02108 L453.698159,995.208576 Z M110.610102,940.786398 L124.245337,946.805172 L89.5690407,1026.08897 L73.5047844,1018.57558 L110.610102,940.786398 Z M1102.54936,936.858285 L1131.44889,950.040879 L1099.289,1023.55911 L1070.66061,1010.48183 L1102.54936,936.858285 Z M302.498304,960.98492 L311.741582,1013.93041 L274.786398,1018.7907 L273.11151,1013.43839 C268.598125,998.970372 263.720607,982.984045 258.766957,966.519683 L302.498304,960.98492 Z M790.299116,923.751877 L834.234375,942.928597 L801.980378,1017.59635 L773.977168,1005.42436 L785.54415,974.729954 L771.225472,969.197432 L790.299116,923.751877 Z M1032.63433,916.164547 L1047.21742,967.929142 L1046.70203,968.803052 L1025.52204,1016.35047 L994.576672,1003.71687 L1032.63433,916.164547 Z M486.120216,937.74788 L494.173631,945.536882 L456.714268,982.572735 L402.126272,1016.03228 L411.887173,947.13905 L486.120216,937.74788 Z M340.499939,956.173934 L348.535429,1009.08582 L314.784581,1013.52931 L305.543544,960.597263 L340.499939,956.173934 Z M402.428779,948.337875 L394.677871,1003.01326 L351.576187,1008.68471 L343.540698,955.788517 L402.428779,948.337875 Z M538.855075,914.297965 L552.154191,919.151526 L508.481105,1008.34187 L465.106044,987.206698 L538.855075,914.297965 Z M770.037851,972.029797 L781.602592,976.4957 L771.16273,1004.20088 L758.791303,998.822977 L770.037851,972.029797 Z M1000.98534,902.497941 L1031.15092,910.87179 L1031.32122,911.483527 L991.744307,1002.71076 L962.92993,990.800933 L1000.98534,902.497941 Z M1095.02029,864.783127 L1119.09314,875.521015 L1065.46869,999.322674 L1054.31625,959.494792 L1095.02029,864.783127 Z M756.326429,908.92454 L787.486919,922.523922 L755.979106,997.601744 L728.623486,985.709847 L756.326429,908.92454 Z M1224.24915,920.574431 L1249.2004,931.245094 L1243.38937,944.266644 C1232.54672,968.476158 1225.35118,984.045881 1223.25648,988.553416 L1198.36573,977.197069 L1224.24915,920.574431 Z M184.361374,969.983951 L224.518653,882.841691 L234.030105,915.475814 C238.482621,930.658864 243.71901,948.384354 249.133781,966.436773 L217.247275,984.502059 L184.361374,969.983951 Z M703.017926,885.653888 L747.876393,905.233951 L720.171209,982.034944 L666.082909,958.522287 L703.017926,885.653888 Z M1194.43538,907.82431 L1221.42799,919.368883 L1195.5737,975.924297 L1169.81801,964.175812 L1194.43538,907.82431 Z M936.179324,892.956638 L957.711119,901.485102 L927.590359,973.755208 L902.397105,966.403161 L936.179324,892.956638 Z M190.209847,857.79633 L220.727229,858.930172 L220.890807,868.724685 L175.940468,966.270954 L146.438166,953.247456 L190.209847,857.79633 Z M283.926599,861.563106 L335.099625,878.702943 L330.261749,886.243217 L329.952519,886.73171 L340.040577,953.142139 L257.868399,963.539426 L256.806262,959.994489 L283.149043,862.84484 L283.926599,861.563106 Z M1159.75012,892.988009 L1191.61422,906.618762 L1167.0327,962.90304 L1135.46663,948.503694 L1159.75012,892.988009 Z M872.643835,861.749092 L928.970688,886.610707 L895.405826,959.595627 L840.692345,935.710998 L872.643835,861.749092 Z M694.460332,881.896076 L694.65304,882.001393 L700.203488,884.425933 L663.26399,957.296572 L609.171209,933.781674 L616.486036,925.465896 C627.870275,912.572285 646.863752,891.281351 657.018895,881.129724 C669.69507,868.458031 694.222808,881.763869 694.460332,881.896076 Z M1062.08061,850.087997 L1092.21705,863.532764 L1053.00091,954.795845 L1038.60828,903.394259 L1038.27441,903.300145 L1062.08061,850.087997 Z M229.930172,859.273014 L280.587815,861.155281 L280.303234,861.621366 L255.139111,954.421633 L249.637129,935.940215 C242.641827,912.340121 235.852747,889.052787 230.098232,869.011507 L229.930172,859.273014 Z M364.099988,877.268835 L373.444101,948.916 L343.081335,952.754482 L333.154615,887.415153 L338.333091,879.343811 L364.099988,877.268835 Z M111.934411,938.016776 L151.15952,855.788578 L152.602592,856.398074 L186.893471,857.673086 L143.625969,952.008297 L111.934411,938.016776 Z M417.536216,872.959787 L410.105741,894.155463 L402.874697,945.189559 L376.4871,948.528343 L367.156432,877.017866 L417.536216,872.959787 Z M1127.52301,879.204881 L1156.92896,891.782461 L1132.67908,947.230923 L1103.77059,934.043847 L1127.52301,879.204881 Z M478.315528,868.06141 L481.983709,870.949794 L485.055838,934.792272 L412.33085,943.995216 L419.086846,896.344719 L427.570494,872.15086 L478.315528,868.06141 Z M485.1746,873.463966 L530.756844,909.365976 L496.353924,943.381238 L488.154857,935.457788 L485.1746,873.463966 Z M118.356529,841.931504 L148.329397,854.594234 L109.131177,936.777616 L82.4545179,925.004482 L118.356529,841.931504 Z M825.125545,840.773014 L869.836119,860.509932 L837.880148,934.485283 L793.857498,915.268229 L825.125545,840.773014 Z M1248.9203,866.609375 L1269.8919,878.501272 C1268.87906,884.443859 1267.05729,890.684472 1264.21372,897.191739 L1259.04653,908.978605 C1256.02764,915.845108 1253.15732,922.338416 1250.44628,928.44186 L1225.52641,917.782401 L1248.9203,866.609375 Z M618.150073,829.748304 L661.796269,866.297905 L659.8535,868.529736 C656.541606,869.820434 653.368641,871.769925 650.513869,874.622456 L649.229129,875.917703 C635.554477,889.809678 609.835604,919.055102 602.298692,927.666546 L546.090601,907.14759 L552.748001,900.566376 L618.150073,829.748304 Z M1219.67569,850.027495 L1246.24255,865.092357 L1222.70749,916.579094 L1195.66109,905.014353 L1219.67569,850.027495 Z M786.976017,823.933442 L822.317829,839.536095 L791.047541,914.044755 L759.454578,900.252665 L786.875182,824.242672 L786.976017,823.933442 Z M1186.7136,831.337028 L1216.99346,848.508236 L1192.84218,903.808806 L1160.97808,890.178052 L1186.7136,831.337028 Z M551.86961,811.638203 L605.303597,830.104591 L546.204881,894.099443 L537.34702,902.849746 L526.26181,894.117369 L551.86961,811.638203 Z M1029.78404,835.684169 L1059.27961,848.839874 L1035.28519,902.471051 L1004.66249,893.971718 L1029.78404,835.684169 Z M743.932594,804.935986 L778.510296,820.200279 L778.194344,821.201914 L751.004542,896.564317 L707.181323,877.436894 L743.932594,804.935986 Z M968.679809,808.424903 L994.117309,819.776768 L961.359133,893.037306 L939.733224,884.468508 L968.679809,808.424903 Z M506.670543,796.017624 L548.970022,810.634327 L523.680414,892.087209 L486.037306,862.437016 L506.670543,796.017624 Z M996.920543,819.660247 L1026.98304,833.526284 L1001.6531,891.3836 L964.641897,891.3836 L996.920543,819.660247 Z M1155.83993,813.83194 L1184.03585,829.817769 L1158.15916,888.974746 L1128.74201,876.390443 L1155.83993,813.83194 Z M949.966933,800.080184 L960.263384,804.673813 L930.153828,883.780584 L902.309714,871.489826 L949.966933,800.080184 Z M726.042091,797.039426 L741.12712,803.696827 L704.369125,876.208939 L698.720082,873.741824 L697.635771,873.179589 C693.259404,870.983976 678.837398,864.516473 665.23813,867.010477 L726.042091,797.039426 Z M359.526526,846.298813 L360.115855,846.738009 L363.701126,874.221354 L340.414789,876.09914 L359.526526,846.298813 Z M313.807594,812.368702 L357.057171,844.465843 L336.80711,876.040879 L285.557897,858.874152 L313.807594,812.368702 Z M1263.16951,835.435441 C1268.6505,846.271923 1272.29179,859.694283 1270.37815,875.249879 L1250.19979,863.810623 L1263.16951,835.435441 Z M390.120094,798.599019 L400.575642,806.83618 L407.221839,870.714511 L366.759811,873.974867 L362.988554,845.052931 L361.184714,843.712936 L390.120094,798.599019 Z M1122.76581,800.212391 L1147.53107,809.870216 L1120.3099,872.708818 L1096.22808,861.966449 L1122.76581,800.212391 Z M403.936834,809.478077 L432.036398,831.612645 L418.649891,869.793544 L410.278282,870.468023 L403.936834,809.478077 Z M968.444525,740.022408 L980.128028,744.577943 L966.828912,755.575763 L967.209847,756.039608 L948.066739,797.397953 L899.461664,870.234981 L874.277374,859.118399 L968.444525,740.022408 Z M439.675266,837.626938 L474.76835,865.267139 L428.679687,868.984617 L439.675266,837.626938 Z M680.4957,762.237645 L719.232316,793.971778 L720.20258,792.784157 L719.584121,794.189135 L723.10665,795.744247 L663.808503,863.980923 L620.227289,827.494065 L680.4957,762.237645 Z M1220.91037,847.201853 L1238.94204,805.912972 L1240.09906,806.843866 C1244.63917,810.577023 1254.10326,819.270057 1261.34999,832.042878 L1247.52204,862.291364 L1220.91037,847.201853 Z M1090.09726,787.468992 L1119.90655,799.098716 L1093.42708,860.718326 L1063.33097,847.291485 L1090.09726,787.468992 Z M458.849746,779.487282 L503.773195,795.013748 L483.458152,860.402374 L442.890807,828.453125 L446.576914,817.94828 L458.849746,779.487282 Z M301.740916,763.916 L302.892684,824.428658 L281.867309,858.152616 L263.770652,857.500545 L263.770652,768.908491 L301.740916,763.916 Z M838.343992,809.276405 L891.177447,832.800266 L871.380027,857.836664 L826.308685,837.94289 L838.343992,809.276405 Z M260.055414,769.318556 L260.055414,857.388505 L228.57225,856.203125 L227.579578,773.764293 L260.055414,769.318556 Z M219.272953,774.990007 L220.671209,855.860283 L190.743156,854.75109 L188.961725,779.032401 L219.272953,774.990007 Z M185.905281,779.440225 L187.675509,854.63681 L153.279312,853.357316 L151.939317,852.788154 L152.042393,783.953186 L185.905281,779.440225 Z M148.976986,784.365492 L148.876151,851.495216 L119.044453,838.895228 L117.029978,788.625242 L148.976986,784.365492 Z M1056.2523,774.268471 L1087.23353,786.355317 L1060.52998,846.041122 L1030.99631,832.869731 L1056.2523,774.268471 Z M1205.62815,788.103137 L1236.33824,804.21445 L1218.22814,845.682594 L1187.95276,828.513626 L1205.62815,788.103137 Z M344.161398,762.394501 L387.702277,796.689862 L358.715359,841.882207 L315.405281,809.738009 L344.161398,762.394501 Z M113.978016,789.033067 L115.925266,837.577641 L71.2505451,818.705669 L87.5680111,792.555596 L113.978016,789.033067 Z M813.213481,741.633539 L855.817708,759.716751 L823.505451,836.705971 L787.91267,820.995761 L813.213481,741.633539 Z M1023.53222,761.507146 L1053.39753,773.157037 L1028.19755,831.619368 L998.170906,818.226139 L1023.53222,761.507146 Z M858.638869,760.913336 L925.557958,789.319889 L893.140383,830.319707 L839.527132,806.450763 L858.638869,760.913336 Z M610.491037,760.431565 L639.91491,769.95046 L631.254239,802.000545 L607.571281,827.644198 L590.628634,821.789002 L610.491037,760.431565 Z M1174.13826,771.584 L1202.90558,786.675751 L1185.27053,826.994368 L1157.06341,811.001817 L1174.13826,771.584 Z M460.913517,742.760659 L437.85126,815.028525 L435.25642,822.436592 L395.108103,790.81898 L422.663154,747.862948 L460.913517,742.760659 Z M571.66703,747.869671 L607.575763,759.48819 L587.731286,820.787367 L552.777132,808.707243 L571.66703,747.869671 Z M339.747032,758.92351 L341.734617,760.485344 L305.913275,819.460816 L305.348595,763.508176 L339.747032,758.92351 Z M796.192406,764.742854 L779.451429,817.260356 L745.321887,802.197735 L763.333394,766.667696 L796.192406,764.742854 Z M991.320797,748.945252 L1020.67297,760.391231 L995.369913,816.978016 L969.768835,805.554445 L991.320797,748.945252 Z M541.63142,758.564983 L563.118399,765.061047 L549.879784,807.703367 L507.582546,793.086664 L516.294755,765.056565 L533.723656,771.263566 L541.63142,758.564983 Z M1142.35035,754.627907 L1165.98401,767.265988 L1148.74558,807.053537 L1123.97584,797.391231 L1142.35035,754.627907 Z M982.312803,746.753755 L961.356892,801.803355 L951.450339,797.384508 L970.279736,756.698401 L982.312803,746.753755 Z M1232.09193,727.601684 L1263.68041,741.613372 L1237.56395,801.406734 L1206.85835,785.293181 L1232.09193,727.601684 Z M820.574491,688.248849 L797.189559,761.614704 L762.275739,763.66055 L762.365371,765.186531 L760.996245,764.496366 L742.516412,800.958576 L728.148438,794.617127 L820.574491,688.248849 Z M642.836906,770.896076 L656.037427,775.164789 L635.747032,797.138021 L642.836906,770.896076 Z M1092.65177,728.047602 L1139.64123,753.175872 L1121.11882,796.275315 L1091.34763,784.667999 L1111.78591,738.98492 L1108.98716,737.732316 L1088.48837,783.552083 L1058.07407,771.689317 L1092.65177,728.047602 Z M850.522711,594.323704 L822.342478,682.711846 L821.766594,682.209908 L725.212997,793.321948 L721.011507,791.468811 L682.579639,759.978924 L724.495942,714.593871 L761.294271,750.569828 L763.43647,748.378331 L726.579881,712.341873 L732.265361,706.249242 C748.276769,689.179154 788.982744,646.445283 805.975234,634.755111 L806.565044,634.355499 C819.848474,625.499879 838.045967,607.416667 850.522711,594.323704 Z M522.564499,734.541424 L504.682958,792.082788 L459.784157,776.563045 L470.999334,741.416182 L522.564499,734.541424 Z M112.517018,752.579821 L113.854772,785.954215 L89.6765988,789.178719 L112.517018,752.579821 Z M418.676781,748.396257 L392.690286,788.912064 L352.461301,757.224988 L418.676781,748.396257 Z M881.620458,706.15952 L965.457546,738.854954 L927.529857,786.823643 L859.82649,758.085453 L881.620458,706.15952 Z M149.106953,693.956153 L148.976986,781.268714 L116.906734,785.546391 L115.403161,747.961543 L149.106953,693.956153 Z M1199.457,713.128391 L1229.2887,726.360283 L1204.13578,783.863554 L1175.36174,768.76508 L1199.457,713.128391 Z M152.176841,693.586422 L183.908733,694.697856 L185.833576,776.356892 L152.046875,780.860889 L152.176841,693.586422 Z M186.980862,694.805414 L217.906068,695.887718 L219.219174,771.902192 L188.890019,775.944586 L186.980862,694.805414 Z M665.32328,687.664002 L720.740371,705.110828 L718.869307,707.129784 L718.869307,707.129784 L658.325279,772.68647 L643.634629,767.931504 L665.32328,687.664002 Z M226.676538,696.210392 L260.57976,697.420422 L260.055414,697.521257 L260.055414,766.224019 L227.52804,770.676478 L226.676538,696.210392 Z M1084.59387,662.186168 L1111.72989,674.221475 L1090.90843,725.309351 L1055.08485,770.526344 L1024.78482,758.706153 L1042.79633,718.430111 L1042.91733,718.150012 L1043.56716,696.105075 L1084.59387,662.186168 Z M528.162003,733.790758 L568.751756,746.926296 L564.025921,762.132328 L540.271257,754.950581 L532.428476,767.546088 L517.204518,762.121124 L525.912246,734.093266 L528.162003,733.790758 Z M636.941376,678.729954 L662.392321,686.740795 L640.714874,766.990371 L611.434411,757.516291 L636.941376,678.729954 Z M263.770652,699.939075 L300.931989,729.138869 L300.931989,760.828186 L263.770652,765.813953 L263.770652,699.939075 Z M1149.47384,690.962452 L1191.04954,709.399709 L1179.99794,734.913396 L1159.35798,724.717781 L1158.0023,727.469477 L1178.77671,737.727834 L1167.20749,764.442587 L1127.13984,743.016109 L1149.47384,690.962452 Z M305.028161,731.572372 L336.390322,756.277132 L305.317224,760.420361 L305.028161,731.572372 Z M1040.42333,698.706638 L1039.87209,717.455366 L1021.92333,757.590237 L992.409823,746.077035 L996.676296,734.879784 L1040.42333,698.706638 Z M830.83509,686.353137 L878.763445,705.043605 L857.005329,756.888869 L814.150133,738.693617 L830.83509,686.353137 Z M597.032825,666.165819 L634.017139,677.808987 L608.519138,756.570676 L572.574552,744.940952 L597.032825,666.165819 Z M385.414426,694.473777 L389.255148,709.96439 L360.658127,753.036943 L349.10235,754.578609 L348.970143,754.475533 L385.414426,694.473777 Z M336.009387,664.832546 L351.544816,744.329215 L346.543362,752.564135 L304.909399,719.772347 L304.485889,677.714874 L336.009387,664.832546 Z M426.376151,659.59805 L469.710877,668.825642 L420.850351,745.010417 L364.69828,752.499152 L426.376151,659.59805 Z M472.912972,669.515807 L483.527616,671.897771 L461.946524,739.529433 L424.830002,744.479348 L472.912972,669.515807 Z M551.472989,651.824734 L594.106347,665.247093 L569.659278,743.995337 L528.446584,730.660368 L526.913881,730.864281 L551.472989,651.824734 Z M113.166848,692.221778 L145.860041,693.366824 L115.181323,742.518653 L113.166848,692.221778 Z M954.392502,591.034218 L1030.13136,620.861434 L984.271257,740.945615 L982.429324,742.343871 L978.501211,740.968023 L978.501211,668.012234 L979.337028,667.868823 L954.392502,591.034218 Z M1114.53537,675.465116 L1146.67284,689.71657 L1124.42399,741.566315 L1094.18447,725.39226 L1114.53537,675.465116 Z M374.185804,649.232134 L384.372456,690.28125 L353.911095,740.439196 L338.904494,663.649406 L374.185804,649.232134 Z M883.832122,698.280887 L974.785974,733.08939 L974.785974,739.771439 L882.079821,703.329397 L883.832122,698.280887 Z M1247.72596,691.854288 L1279.57885,705.218387 L1264.90837,738.801175 L1233.31989,724.791727 L1247.72596,691.854288 Z M492.540092,673.921209 L538.209726,684.168362 L523.563893,731.312439 L472.030099,738.184956 L492.540092,673.921209 Z M908.523437,640.324976 L974.785974,668.84805 L974.785974,729.806625 L885.026466,695.450763 L908.523437,640.324976 Z M1092.12294,611.810865 L1112.2632,635.328004 L998.883479,729.071645 L1038.78979,624.236071 L1063.88669,634.13366 L1044.9811,651.896439 L1047.07849,654.130511 L1092.12294,611.810865 Z M1214.67648,677.988251 L1244.89807,690.668907 L1230.51665,723.550327 L1200.67599,710.313953 L1214.67648,677.988251 Z M301.433927,678.962997 L301.819344,717.336604 L269.607922,691.966328 L301.433927,678.962997 Z M1128.2804,641.736676 L1206.19507,674.429869 L1192.26629,706.585271 L1115.69162,672.62603 L1128.2804,641.736676 Z M408.8621,655.867127 L423.151647,658.910126 L391.554203,706.502362 L387.657461,690.785429 L408.8621,655.867127 Z M720.807594,617.97305 L752.826308,628.419634 L738.041546,675.415819 L739.928295,684.777859 L734.237961,690.740539 C729.629362,695.592553 725.764949,699.715623 723.052871,702.621306 L696.82437,694.363978 L720.807594,617.97305 Z M833.306686,678.604469 L882.059654,697.18962 L879.948825,702.217963 L831.76726,683.422178 L833.306686,678.604469 Z M841.362343,653.332788 L892.190286,673.047299 L883.247275,694.359496 L834.238857,675.677992 L841.362343,653.332788 Z M658.937016,653.577035 L701.695858,668.608285 L693.897892,693.445252 L649.001332,679.31032 L658.656916,657.861434 L658.937016,653.577035 Z M299.834,547.55384 L301.259145,675.664547 L266.766594,689.786034 L266.139172,689.263929 L264.431686,688.331759 L263.770652,688.325036 L263.770652,561.1465 L283.798874,547.842902 L299.834,547.55384 Z M260.055414,563.237161 L260.055414,688.219719 L226.087209,687.000727 L223.942769,588.188408 L260.055414,563.237161 Z M216.156008,594.39765 L217.746972,686.680293 L190.088844,685.710029 L182.956395,639.722202 L207.605136,600.23492 L216.156008,594.39765 Z M377.325157,649.151466 L405.686894,655.190407 L386.615492,686.590661 L377.325157,649.151466 Z M180.471354,643.708576 L186.969658,685.602471 L155.020409,684.484314 L180.471354,643.708576 Z M176.971233,621.148256 L179.749818,639.065649 L151.484436,684.356589 L112.552871,682.996427 L111.28234,666 L176.971233,621.148256 Z M108.360344,667.994307 L109.474019,682.886628 L87.6621245,682.124758 L108.360344,667.994307 Z M755.743823,629.371972 L786.014717,639.251635 C772.643895,651.255572 755.932049,668.14444 742.516412,682.084423 L741.203307,675.586119 L755.743823,629.371972 Z M504.326672,636.983951 L548.546512,650.906008 L539.126211,681.232922 L493.476744,670.988009 L504.326672,636.983951 Z M641.658249,638.312742 C642.364099,640.242066 643.737706,643.392624 645.794755,645.521378 C648.28876,648.096051 653.364159,647.24679 656.328731,646.453549 L655.631844,657.110768 L646.059169,678.382631 L637.48813,675.686955 L637.479098,674.733052 C637.425037,671.194604 637.095531,664.296824 635.413556,660.890831 L635.150981,660.406977 C633.712391,658.009327 634.151587,647.647892 634.790213,641.257146 C637.024285,640.358588 639.347989,639.356953 641.658249,638.312742 Z M597.940346,663.239341 L607.107437,633.714632 L607.542599,634.304479 C611.122278,639.055776 618.696003,646.687095 628.681807,643.486737 C629.613978,643.188711 630.593205,642.850351 631.59484,642.482861 L631.455705,644.172684 C631.050754,649.486989 630.694277,658.214254 632.323391,661.614105 L632.520288,661.982255 C633.927507,664.33509 634.339813,670.779615 634.411519,674.716691 L597.940346,663.239341 Z M337.862524,546.863675 L335.641897,661.668544 L304.454518,674.414184 L303.172783,547.495579 L337.862524,546.863675 Z M1156.26344,602.928355 L1225.30008,630.319828 L1207.41406,671.617672 L1129.43665,638.89983 L1137.91358,618.103016 L1156.26344,602.928355 Z M1132.92109,622.226078 L1112.88838,671.380148 L1087.23353,660.001393 L1132.92109,622.226078 Z M853.126514,616.429142 L906.428295,639.12391 L893.380148,670.219416 L842.296754,650.406311 L853.126514,616.429142 Z M493.682897,547.872032 L521.27156,553.635356 L484.466509,668.966812 L474.676478,666.768593 L488.674721,644.941013 L493.682897,547.872032 Z M463.669695,541.609012 L490.642139,547.240128 L485.65413,643.970749 L471.481105,666.067224 L428.200157,656.850836 L430.310986,653.671148 L463.669695,541.609012 Z M677.08297,622.412064 L710.531311,640.475109 L702.614583,665.679566 L659.143169,650.397347 L660.10671,635.664123 L669.966139,628.043687 C673.011811,625.67302 675.699395,623.557651 677.08297,622.412064 Z M933.436592,582.691739 L950.890141,589.57546 L975.664365,665.271742 L910.434835,637.497093 L933.436592,582.691739 Z M576.612464,570.914123 L619.093447,584.777919 L595.01835,662.318375 L552.382752,648.896015 L576.612464,570.914123 Z M374.526405,546.189196 L373.724201,646.108467 L338.734193,660.404736 L340.930172,546.805414 L374.526405,546.189196 Z M492.311531,405.180475 L492.311531,439.664062 L495.650315,440.593992 L490.554748,544.145591 L461.410974,538.028222 L427.442769,652.355802 L424.944283,656.162912 L410.533733,653.090782 L412.026102,650.650557 L414.703852,544.636325 C427.942466,542.583757 438.055172,537.546451 444.831335,529.564741 C455.835877,516.599503 454.018593,500.660732 453.816921,499.152677 L451.437197,433.421209 L492.311531,405.180475 Z M137.006662,606.542757 L138.700703,636.141412 L110.49134,655.403282 L106.984496,608.563953 L137.006662,606.542757 Z M411.625,545.050872 L408.985344,649.75648 L407.369731,652.414062 L376.789608,645.902313 L377.596294,546.133176 L402.166606,545.682776 C405.474019,545.620034 408.620094,545.402677 411.625,545.050872 Z M530.23922,555.779797 L573.694949,569.961785 L549.456274,647.975048 L505.258842,634.061955 L530.23922,555.779797 Z M666.64983,620.467054 L673.296027,621.538154 L670.552751,623.69658 C668.754608,625.103524 666.663118,626.728737 664.556405,628.359649 L657.135417,634.082122 L656.541606,643.199915 C653.500848,644.158975 649.33297,644.766231 647.997456,643.385901 C646.251877,641.582062 645.039608,638.67351 644.45476,637.026526 L647.590248,635.539178 C653.543256,632.671985 658.750504,629.927528 661.22957,628.599196 L663.165395,627.554687 L666.64983,620.467054 Z M622.00648,585.728016 L646.621609,593.763505 L632.199855,638.98274 C630.638021,639.583273 629.14117,640.123304 627.747396,640.569222 C617.583152,643.820615 609.903949,632.565104 608.277132,629.943375 L622.00648,585.728016 Z M680.948341,604.962997 L717.892321,617.018471 L711.465722,637.492611 L678.69186,619.794816 L678.910953,618.749789 C679.341921,616.547371 679.978427,612.506772 680.948341,604.962997 Z M649.534641,594.711361 L677.981529,603.997214 L677.380681,608.509824 C676.7722,612.944287 676.165925,616.954609 675.787791,618.833515 L664.904251,617.081214 L660.843932,625.327338 L657.535953,627.083396 C652.687538,629.625738 643.8974,634.106024 635.892684,637.483648 L649.534641,594.711361 Z M767.304082,592.625182 L822.060138,609.659702 C815.143814,616.111958 808.233556,622.050545 802.378341,626.080672 L801.462754,626.700945 C798.00969,629.004482 793.617733,632.551659 788.670058,636.892078 L756.662548,626.449976 L767.304082,592.625182 Z M854.063166,613.493702 L870.122941,563.111676 L903.105196,573.919029 L907.230499,572.359436 L930.586301,581.569101 L907.613675,636.296027 L854.063166,613.493702 Z M201.304021,604.535005 L182.234859,635.083757 L179.781189,619.232376 L201.304021,604.535005 Z M174.840237,603.994973 L175.295119,611.154312 L141.65407,634.124697 L140.065346,606.336604 L174.840237,603.994973 Z M1117.81365,587.673026 L1153.01205,601.637657 L1114.62724,633.37179 L1094.35925,609.709 L1117.81365,587.673026 Z M1050.85871,592.526587 L1089.52586,610.045119 L1066.35828,631.809956 L1039.88106,621.367854 L1050.85871,592.526587 Z M750.35023,523.873123 L782.416,534.377968 L753.749516,625.497638 L721.728561,615.044331 L750.35023,523.873123 Z M1229.39178,520.110828 L1263.14486,542.955729 L1228.9593,621.876514 L1147.89632,589.712149 L1229.39178,520.110828 Z M995.298207,539.06571 L1052.69616,561.836664 L1043.5582,585.85126 L978.915758,556.561834 L977.649709,559.356105 L1042.46469,588.721718 L1031.32122,617.995458 L953.352774,587.249516 L943.936955,558.479954 L995.298207,539.06571 Z M719.642381,543.40837 L736.697069,556.91812 L718.506298,613.991158 L681.040213,601.967054 L686.787851,584.636749 L686.787851,581.708031 L703.024649,581.708031 L707.510719,563.891473 L699.755329,549.33079 L719.642381,543.40837 Z M186.980862,603.174843 L178.241764,609.14656 L177.898922,603.78882 L186.980862,603.174843 Z M1061.24927,565.231468 L1114.66533,586.422662 L1091.94368,607.775194 L1051.95446,589.653888 L1061.24927,565.231468 Z M778.026284,558.549419 L848.230378,583.330366 L846.475176,585.197571 C840.440283,591.594509 832.617132,599.650073 824.623607,607.246366 L768.225048,589.698704 L778.026284,558.549419 Z M131.460695,509.543241 L136.83188,603.479591 L106.751453,605.505269 L99.688469,511.145409 L131.460695,509.543241 Z M168.709423,507.667696 L174.645288,600.934048 L139.890564,603.275678 L134.521621,509.393108 L168.709423,507.667696 Z M663.306565,542.39329 L672.610344,556.142805 L686.138021,580.827398 L678.732195,601.016957 L650.395107,591.769198 L663.306565,542.39329 Z M214.616582,505.357437 L215.963299,583.390867 L191.691013,599.963784 L191.675327,599.789002 L177.706214,600.727895 L171.768108,507.517563 L214.616582,505.357437 Z M630.824007,557.328186 L653.78767,566.670058 L647.47311,590.81462 L622.916243,582.801538 L630.824007,557.328186 Z M1134.74734,556.35344 L1166.82879,569.506904 L1144.66957,588.434896 L1125.66988,580.894622 L1134.74734,556.35344 Z M941.97626,562.343084 L949.64874,585.790758 L934.624213,579.863857 L941.97626,562.343084 Z M605.928779,476.560986 L648.37391,490.469598 L620.00321,581.849201 L577.522226,567.987645 L605.928779,476.560986 Z M785.331274,535.332546 L861.383842,560.250182 L857.101684,573.677023 L852.974288,578.214931 C852.227955,579.027445 851.405086,579.91913 850.513748,580.878937 L778.94725,555.6207 L785.331274,535.332546 Z M696.837815,551.094295 L704.275012,565.197856 L700.584423,580.468871 L688.981589,580.468871 L689.494731,579.823522 L676.827519,557.473837 L696.837815,551.094295 Z M1074.27725,531.568011 L1131.90601,555.190468 L1122.81959,579.765262 L1064.54996,556.644743 L1074.27725,531.568011 Z M939.583091,560.126938 L931.771681,578.738978 L911.496972,570.746063 L939.583091,560.126938 Z M260.055414,398.379663 L260.055414,552.098171 L224.189256,575.837149 L222.013445,398.379663 L260.055414,398.379663 Z M1146.63923,524.195797 L1195.98377,544.609436 L1169.45276,567.270591 L1135.80947,553.480741 L1146.63923,524.195797 Z M560.294998,461.610405 L603.011265,475.604167 L574.606953,567.033067 L531.173631,552.860041 L560.294998,461.610405 Z M883.390686,521.280523 L911.003997,534.01944 L927.937682,534.01944 L939.668241,550.045603 L902.887839,564.057292 L872.919453,554.184351 L883.390686,521.280523 Z M640.829155,525.103319 L655.322614,530.602229 L661.018714,539.016412 L654.571948,563.678597 L631.73601,554.388263 L640.829155,525.103319 Z M693.913578,539.424237 L695.849625,548.185744 L675.323946,554.731105 L675.22087,554.545119 L671.496669,549.037246 L682.449673,547.903404 L693.913578,539.424237 Z M715.958515,512.608648 L747.439438,522.918544 L737.678537,554.005087 L721.587391,541.452156 L722.851199,532.343326 L713.892502,523.942587 L715.958515,512.608648 Z M1007.75254,504.299782 L1065.76447,528.076853 L1055.99685,553.25218 L998.330002,530.371427 L1007.75254,504.299782 Z M1086.74727,499.419331 L1143.80463,523.023861 L1132.96814,552.317769 L1075.38421,528.708757 L1086.74727,499.419331 Z M854.367914,459.076066 L888.64983,470.123183 L875.270046,516.700339 L864.178113,551.484193 L829.802083,540.22196 L854.367914,459.076066 Z M495.560683,511.465843 L531.106407,522.815468 L522.205971,550.704397 L493.841994,544.779736 L495.560683,511.465843 Z M298.637415,398.379663 L299.349988,524.742551 L263.770652,550.003028 L263.770652,508.006056 L278.633842,508.006056 L278.633842,468.47844 L263.770652,468.969174 L263.770652,398.379663 L298.637415,398.379663 Z M965.493399,486.976199 L1004.91346,503.134569 L995.477471,529.237585 L995.378876,529.199491 L942.65298,549.131359 L930.30172,532.491219 L932.535792,512.333031 L952.041909,520.083939 L965.493399,486.976199 Z M712.095385,526.459 L719.597565,533.495094 L718.562318,540.947977 L698.782825,547.255814 L696.613735,537.42993 L698.614765,535.953246 L712.095385,526.459 Z M685.512839,511.102834 L695.782401,533.286701 L681.297905,544.938832 L669.544937,546.153343 L658.759993,530.21233 L662.571584,519.927083 L678.340056,511.102834 L685.512839,511.102834 Z M300.0043,537.14983 L300.078246,544.486192 L288.959423,544.690104 L300.0043,537.14983 Z M338.559411,510.824976 L337.923026,543.791546 L303.145894,544.430172 L303.04954,535.068132 L338.559411,510.824976 Z M375.017139,485.938711 L374.553295,543.121548 L340.990673,543.737766 L341.667393,508.702943 L375.017139,485.938711 Z M413.787367,459.465964 L411.703428,541.965298 C408.671633,542.332788 405.47626,542.554627 402.110586,542.617369 L377.618702,543.065528 L378.098232,483.830124 L413.787367,459.465964 Z M1159.27059,490.039365 L1225.40764,517.410671 L1226.75884,518.324915 L1198.60102,542.375363 L1147.70361,521.320858 L1159.27059,490.039365 Z M448.925266,435.471536 L450.749273,499.322977 L450.830286,500.082178 C451.100853,503.047625 451.757316,516.694492 442.467297,527.613009 C436.275981,534.888869 426.990128,539.542999 414.78228,541.528343 L416.908794,457.332728 L448.925266,435.471536 Z M1258.58933,495.173026 L1280.0539,503.916606 L1264.38178,540.091994 L1231.80735,518.042575 L1258.58933,495.173026 Z M813.466691,445.895712 L851.4504,458.134932 L826.884569,539.267381 L788.091933,526.557594 L813.466691,445.895712 Z M651.282461,491.296451 L713.016352,511.645107 L710.833818,523.595264 L698.310017,531.460453 L687.435441,508.006056 L677.616279,508.006056 L660.167212,517.69077 L656.451974,527.274649 L641.738917,521.934835 L651.282461,491.296451 Z M890.852531,495.762355 L929.582425,510.307352 L927.337149,529.683503 L911.685199,529.683503 L884.309411,517.68853 L890.852531,495.762355 Z M764.689075,478.205729 L796.817587,488.591812 L785.174419,525.603016 L753.106407,515.098171 L764.689075,478.205729 Z M1019.56153,471.628997 L1078.2457,495.903525 L1066.87367,525.21984 L1008.79451,501.413639 L1019.56153,471.628997 Z M340.683685,398.379663 L338.776768,498.193617 L302.939741,521.990855 L301.702822,398.379663 L340.683685,398.379663 Z M1099.91642,465.473534 L1156.43823,488.865189 L1144.869,520.148922 L1087.85423,496.564559 L1099.91642,465.473534 Z M499.16164,441.586664 L551.551417,458.744428 L532.038578,519.893471 L495.72202,508.297359 L499.16164,441.586664 Z M1170.62246,459.34272 L1255.38947,493.871124 L1229.17666,516.258903 L1226.87088,514.697069 L1160.33497,487.162185 L1170.62246,459.34272 Z M973.513203,459.08727 L950.347868,516.108769 L932.887597,509.171269 L936.997214,472.130935 L973.513203,459.08727 Z M743.392563,478.073522 L759.902737,483.213905 L750.191134,514.143593 L733.750424,508.754482 L743.392563,478.073522 Z M126.548874,423.714087 L131.285913,506.482316 L99.4643895,508.084484 L95.052265,449.169513 L126.548874,423.714087 Z M933.786156,473.275981 L929.931989,507.997093 L891.701793,492.802265 L892.288881,490.760901 L908.07976,482.458757 L933.786156,473.275981 Z M714.143471,468.969174 L740.463844,477.16376 L730.837391,507.802144 L705.868217,499.623244 L714.143471,468.969174 Z M161.919816,398.379663 L168.509993,503.266776 L134.344598,505.653222 L129.486555,419.660489 L154.567769,398.379663 L161.919816,398.379663 Z M273.679445,471.642442 L273.679445,504.290819 L263.770652,504.290819 L263.770652,472.034581 L273.679445,471.642442 Z M212.812742,398.379663 L214.562803,500.945312 L171.573159,502.437682 L164.991945,398.379663 L212.812742,398.379663 Z M981.311168,455.806747 L1016.72469,470.454821 L1005.95543,500.250666 L966.647408,484.139353 L977.383055,457.7047 L980.975048,456.422965 L981.311168,455.806747 Z M702.778161,465.430959 L711.212512,468.057171 L702.950703,498.666424 L692.938832,495.385901 L702.778161,465.430959 Z M375.6961,398.379663 L375.102289,473.394743 L341.88475,495.397105 L343.753573,398.379663 L375.6961,398.379663 Z M688.833697,461.088299 L699.849443,464.518956 L690.025799,494.431323 L679.686773,491.043241 L688.833697,461.088299 Z M1031.95312,437.347081 L1091.41261,461.953246 L1079.35265,493.046512 L1020.60126,468.742854 L1031.95312,437.347081 Z M678.882328,402.527374 L701.303719,409.751696 L676.77374,490.090904 L654.009508,482.633539 L678.882328,402.527374 Z M1111.62009,435.305717 L1167.78337,458.18647 L1157.50036,485.988009 L1101.02786,462.609799 L1111.62009,435.305717 Z M778.384811,434.590904 L810.546936,444.956819 L797.738554,485.669816 L765.6078,475.277011 L778.384811,434.590904 Z M633.474867,387.892745 L675.969295,401.58624 L651.100957,481.678961 L608.658067,467.77483 L633.474867,387.892745 Z M747.192951,465.982195 L763.714329,471.07328 L760.821463,480.287427 L744.31353,475.147045 L747.192951,465.982195 Z M914.96124,411.837875 L954.75103,421.542757 L936.542333,462.522408 L904.678234,473.905644 L895.795724,478.550812 L914.96124,411.837875 Z M717.426235,456.815104 L744.261991,465.079155 L741.384811,474.235041 L714.943435,466.006844 L717.426235,456.815104 Z M415.259569,398.379663 L414.074188,446.785308 L378.187863,470.616158 L378.765988,398.379663 L415.259569,398.379663 Z M759.019864,428.350291 L775.465056,433.64977 L764.635296,468.146802 L748.113917,463.055717 L759.019864,428.350291 Z M998.775921,423.61101 L1029.11852,436.170664 L1017.76665,467.568677 L982.781129,453.095385 L998.775921,423.61101 Z M871.855075,401.324067 L906.018229,409.655342 L889.496851,467.174297 L855.25751,456.140625 L871.855075,401.324067 Z M587.016473,372.924237 L630.557352,386.953852 L605.740552,466.820252 L595.898983,463.595749 L611.669695,395.253755 L581.972444,389.723474 L587.016473,372.924237 Z M706.69507,453.507691 L714.490795,455.909823 L712.014717,465.092599 L703.737221,462.517926 L706.69507,453.507691 Z M595.112464,395.289608 L607.965661,397.685017 L592.974746,462.638929 L563.015322,452.824249 L570.197069,428.928416 L581.591509,433.784218 L595.112464,395.289608 Z M727.823522,418.298086 L756.10235,427.411398 L745.178476,462.154918 L718.221718,453.850533 L727.823522,418.298086 Z M692.483951,449.13366 L703.76187,452.606892 L700.808503,461.605923 L689.730015,458.15734 L692.483951,449.13366 Z M976.46657,380.233709 L1005.43556,392.0539 L974.566376,448.943193 L940.533188,461.099503 L976.46657,380.233709 Z M1042.82098,407.28234 L1103.09835,431.834726 L1092.52404,459.093992 L1032.99509,434.456456 L1042.82098,407.28234 Z M1128.92127,390.709423 L1185.83297,409.381965 L1168.84775,455.30929 L1112.72929,432.450945 L1128.92127,390.709423 Z M841.427326,357.025799 L878.510235,368.756359 L852.337754,455.201732 L814.385417,442.966994 L841.427326,357.025799 Z M713.23595,433.591509 L720.018835,435.431202 L715.290758,452.947493 L707.649649,450.596899 L713.23595,433.591509 Z M501.601865,400.096112 L561.233891,425.300569 L553.601744,449.960514 L501.601865,432.999939 L501.601865,400.096112 Z M704.218992,410.690589 L716.2543,414.569404 L704.718689,449.691618 L693.378028,446.20046 L704.218992,410.690589 Z M449.277071,398.379663 L448.828912,423.057534 L417.191134,443.984314 L418.327217,398.379663 L449.277071,398.379663 Z M790.196039,396.970203 L822.373849,407.369731 L811.465661,442.030342 L779.301296,431.664426 L790.196039,396.970203 Z M1014.0066,395.545058 L1039.97293,406.123849 L1030.16049,433.286761 L1000.24588,420.90413 L1014.0066,395.545058 Z M719.174055,415.510538 L724.899285,417.354712 L720.816558,432.473353 L714.19501,430.676235 L719.174055,415.510538 Z M760.581698,387.395288 L787.276284,396.024588 L776.383781,430.721051 L749.767624,422.145531 L760.581698,387.395288 Z M581.08509,392.6746 L592.062742,394.720446 L579.783188,429.681323 L571.084423,425.972808 L581.08509,392.6746 Z M1057.30323,367.210211 L1120.16648,387.836725 L1104.20755,428.977713 L1043.86295,404.398437 L1057.30323,367.210211 Z M586.404736,342.989462 L562.567163,422.347202 L504.483527,397.606589 L586.404736,342.989462 Z M731.298995,377.92345 L757.666424,386.447432 L746.847868,421.204397 L720.124152,412.595264 L731.298995,377.92345 Z M483.00327,398.379663 L451.936894,419.593266 L452.342478,398.379663 L483.00327,398.379663 Z M923.823583,380.993338 L967.243459,393.431989 L956.019319,418.694707 L915.810501,408.886749 L923.823583,380.993338 Z M690.606165,364.767745 L728.38148,376.984557 L717.202156,411.65189 L679.792091,399.596415 L690.606165,364.767745 Z M902.648074,299.607679 L934.610768,308.920422 L928.376877,331.828064 L906.86525,406.706456 L872.744671,398.381904 L902.648074,299.607679 Z M1141.30838,358.773619 L1197.64196,377.450642 L1186.89735,406.502544 L1130.02822,387.85017 L1141.30838,358.773619 Z M806.231165,345.893532 L838.500848,356.102592 L823.290334,404.447735 L791.112524,394.043726 L806.231165,345.893532 Z M1033.59787,359.434654 L1054.3902,366.255632 L1041.01938,403.239947 L1015.47432,392.833697 L1033.59787,359.434654 Z M645.221112,350.09054 L687.693132,363.82437 L676.879058,398.657522 L634.38687,384.966267 L645.221112,350.09054 Z M776.437561,336.46875 L803.309169,344.965843 L788.19501,393.09811 L761.493702,384.46657 L776.437561,336.46875 Z M932.737464,349.960574 L980.984012,362.511265 L968.502786,390.604106 L924.670603,378.044453 L932.737464,349.960574 Z M276.307897,324.921936 L297.83297,343.354712 L261.11531,389.710029 L226.611555,389.710029 L276.307897,324.921936 Z M401.420422,331.373183 L416.122275,365.794029 L415.492611,389.710029 L379.579397,389.710029 L401.420422,331.373183 Z M296.596051,348.465964 L296.596051,389.710029 L264.991885,389.710029 L296.596051,348.465964 Z M503.011325,263.405402 L527.028161,283.388808 L526.77047,283.386567 L525.865189,371.216751 L496.506298,389.710029 L491.845446,389.710029 L493.918181,274.05814 L503.011325,263.405402 Z M342.763142,291.852289 L340.862948,389.710029 L300.931989,389.710029 L300.931989,344.504239 L341.667393,291.852289 L342.763142,291.852289 Z M384.795967,293.591146 L399.656916,327.848413 L376.310078,389.710029 L343.928355,389.710029 L344.826914,344.569222 L384.795967,293.591146 Z M490.778828,277.381238 L488.780039,389.710029 L452.51726,389.710029 L453.805717,323.431807 L490.778828,277.381238 Z M450.664123,326.759387 L449.451853,389.710029 L418.558018,389.710029 L419.180959,366.058442 L450.664123,326.759387 Z M232.551902,290.160489 L269.226986,320.650981 L216.915637,389.423207 L180.811955,352.140867 L192.862948,343.733406 L232.551902,290.160489 Z M994.513929,339.614826 L1025.10526,355.804566 L1006.90776,389.340298 L977.710211,377.428234 L994.513929,339.614826 Z M1069.01811,334.80384 L1132.56704,355.874031 L1121.27792,384.97523 L1058.3452,364.328549 L1069.01811,334.80384 Z M598.422117,334.960695 L642.303597,349.149406 L631.467115,384.025133 L587.899346,369.984314 L598.422117,334.960695 Z M747.603016,327.348716 L773.511083,335.541061 L758.576187,383.523195 L732.237888,375.008176 L747.603016,327.348716 Z M1152.03731,325.383539 L1209.66606,344.936713 L1198.70409,374.571221 L1142.27416,355.860586 L1152.03731,325.383539 Z M706.282764,314.275921 L744.683261,326.423268 L729.320373,374.064801 L691.513687,361.839026 L706.282764,314.275921 Z M529.416848,324.536519 L560.859678,348.965661 L528.950763,370.239765 L529.416848,324.536519 Z M847.39008,338.066437 L884.674661,348.385296 L879.39759,365.823159 L842.343811,354.101562 L847.39008,338.066437 Z M445.440831,217.343629 L470.356226,237.51078 L456.478985,254.050085 L458.825097,256.024225 L472.740431,239.437863 L500.624879,262.013869 L418.065044,363.645107 L386.94937,291.928476 L445.440831,217.343629 Z M1051.77519,329.083091 L1066.10732,333.835816 L1055.42993,363.37397 L1035.18883,356.730015 L1051.77519,329.083091 Z M660.817042,299.89226 L703.363009,313.352713 L688.602895,360.900133 L646.130875,347.164062 L660.817042,299.89226 Z M943.186289,312.447432 L991.795845,338.176235 L982.245579,359.669937 L933.584484,347.013929 L937.236979,334.306383 L943.186289,312.447432 Z M827.624031,277.748728 L860.169331,287.231771 L839.421814,353.176114 L807.149891,342.969295 L827.624031,277.748728 Z M1047.65213,256.579942 L1076.00491,271.288517 L1075.30354,271.996609 L1026.61555,353.13578 L995.764293,336.80711 L1017.79803,287.213844 L1047.65213,256.579942 Z M1081.12064,301.319646 L1143.32958,322.430172 L1133.55299,352.96772 L1070.06232,331.915455 L1081.12064,301.319646 Z M189.831153,254.648377 L230.190104,288.199794 L190.698341,341.506056 L178.649588,349.909036 L145.523922,315.701066 L189.831153,254.648377 Z M529.81571,285.643047 L586.731892,331.720506 L563.550872,347.170785 L529.457183,320.684593 L529.81571,285.643047 Z M660.460756,290.716206 L643.211119,346.220688 L601.494247,332.735586 L660.460756,290.716206 Z M863.115976,288.089995 L899.701429,298.751696 L885.564256,345.447614 L848.311047,335.1422 L863.115976,288.089995 Z M1162.15673,293.779373 L1220.55856,315.48595 L1210.7282,342.059532 L1152.96948,322.461543 L1162.15673,293.779373 Z M797.449491,268.962573 L824.675145,276.892745 L804.225654,342.041606 L777.347323,333.542272 L797.449491,268.962573 Z M316.944707,273.112524 L339.258539,290.913396 L299.712997,342.005753 L278.165516,324.097323 L316.944707,273.112524 Z M368.78773,257.769804 L383.408915,291.473595 L344.923268,340.549237 L345.857679,292.255632 L343.531734,290.400254 L368.78773,257.769804 Z M986.922117,151.791424 L1069.68138,162.910247 L993.046209,335.36852 L944.013142,309.417878 L969.44616,215.987948 L1000.06886,222.42351 L1000.70076,219.425327 L970.250606,213.025618 L986.922117,151.791424 Z M769.089995,260.698522 L794.505087,268.104348 L774.423086,332.614583 L748.546391,324.431202 L769.089995,260.698522 Z M1070.5777,297.745579 L1078.21433,300.338178 L1067.14929,330.951914 L1053.39081,326.389656 L1070.5777,297.745579 Z M565.932837,236.86319 L608.335392,268.169331 L592.004482,324.153343 L534.998668,277.999697 L565.932837,236.86319 Z M721.883176,246.946766 L766.145591,259.840298 L745.619913,323.505753 L707.192527,311.351684 L707.905099,309.050388 L721.177326,247.448704 L721.883176,246.946766 Z M632.15728,219.342418 L667.481165,227.492187 L663.055596,277.569465 L602.612403,320.642018 L632.15728,219.342418 Z M1093.12234,268.115552 L1153.52968,290.572796 L1144.26623,319.510417 L1082.16485,298.435744 L1093.12234,268.115552 Z M271.841994,237.125363 L309.753997,267.373849 L271.086846,318.210756 L234.378149,287.693375 L271.841994,237.125363 Z M118.72626,182.613554 L167.230499,280.567648 L143.917272,312.691679 L77.8900194,186.815044 L118.72626,182.613554 Z M1172.62349,261.099625 L1232.85828,282.228077 L1221.6207,312.61101 L1163.09563,290.855136 L1172.62349,261.099625 Z M717.480015,250.083878 L704.942769,308.270591 L704.272771,310.426235 L661.729046,296.970264 L664.581577,287.776284 L717.480015,250.083878 Z M976.72202,152.497275 L935.417454,305.097626 L903.535429,295.374818 L946.661761,152.497275 L976.72202,152.497275 Z M1088.578,271.671693 L1079.2563,297.452035 L1072.19107,295.054385 L1082.61525,277.681504 L1088.578,271.671693 Z M943.457425,152.497275 L900.591025,294.946827 L864.032461,283.868338 L905.229469,152.497275 L943.457425,152.497275 Z M417.554142,194.765383 L443.058866,215.412064 L385.560078,288.730862 L370.92993,255.004663 L417.554142,194.765383 Z M354.197917,224.14444 L367.391715,254.560986 L341.134084,288.486616 L318.806807,270.672299 L354.197917,224.14444 Z M1118.05342,241.952035 L1163.94489,258.054385 L1154.46857,287.646318 L1094.75139,265.449007 L1118.05342,241.952035 Z M229.616461,199.820615 L230.508297,204.145349 L269.444344,235.211725 L232.018593,285.732679 L191.637234,252.158854 L229.616461,199.820615 Z M902.013929,152.497275 L861.088057,283.442587 L819.299479,271.700824 L839.202217,204.913941 L857.673086,190.227774 L859.956456,177.934775 L860.55923,177.580729 L849.716025,154.977834 L851.992672,152.497275 L902.013929,152.497275 Z M1184.40782,224.299055 L1245.60841,247.751211 L1233.92042,279.355378 L1173.5579,258.179869 L1184.40782,224.299055 Z M1034.45161,249.732074 L1044.80632,255.103258 L1021.38554,279.138021 L1034.45161,249.732074 Z M156.001877,178.777313 L171.512657,239.415455 L187.467115,252.680959 L169.267381,277.764414 L121.979893,182.275194 L156.001877,178.777313 Z M561.935259,191.410913 L583.664244,208.185501 L532.614462,276.072614 L508.810501,256.804021 L561.935259,191.410913 Z M670.450218,228.408672 L711.353682,243.153101 L666.304748,275.252483 L670.450218,228.408672 Z M775.178234,225.912427 L826.505875,237.107437 L816.350594,271.275073 L769.827217,257.720506 L775.178234,225.912427 Z M1095.32055,207.663396 L1118.46796,228.475896 L1078.26587,269.005148 L1049.8862,254.283127 L1095.32055,207.663396 Z M586.433866,209.59272 L623.151526,217.357074 L609.251877,265.029978 L567.77477,234.414002 L586.433866,209.59272 Z M346.08624,136.908067 L385.020046,168.431565 L311.611616,264.933624 L273.668241,234.658249 L346.08624,136.908067 Z M774.88469,209.178173 L766.862645,256.8578 L725.058382,244.681323 L774.88469,209.178173 Z M1149.01447,210.740007 L1175.80766,221.002846 L1164.8793,255.134629 L1120.44658,239.543181 L1149.01447,210.740007 Z M532.255935,168.50327 L559.503997,189.537609 L506.426296,254.872456 L478.653888,232.392805 L532.255935,168.50327 Z M1065.18635,180.558745 L1093.04167,205.610828 L1047.04488,252.810925 L1035.70197,246.924358 L1065.18635,180.558745 Z M392.174903,174.221778 L415.167696,192.833818 L369.538396,251.793605 L356.326672,221.345688 L392.174903,174.221778 Z M223.817284,171.799479 L228.771681,195.760296 L189.268714,250.193677 L174.235223,237.694525 L159.085211,178.461361 L223.817284,171.799479 Z M1196.73219,185.811168 L1258.72378,212.286156 L1246.67054,244.874031 L1185.34224,221.3793 L1196.73219,185.811168 Z M702.296391,113.498486 L733.127483,122.201732 L719.539305,237.318072 L714.387718,240.990734 L670.961119,225.334302 L702.296391,113.498486 Z M817.437379,178.8535 L836.186107,204.528525 L827.382025,234.160792 L775.689135,222.887355 L778.420664,206.65952 L817.437379,178.8535 Z M728.538336,187.155644 L747.531311,191.785126 L743.13039,212.962875 L727.292454,219.398437 L723.041667,233.75969 L728.538336,187.155644 Z M324.063711,161.482861 L271.26835,232.746851 L233.289123,202.442345 L232.052204,196.463905 L252.0625,168.890928 L324.063711,161.482861 Z M754.222323,187.518653 L768.393108,202.507328 L726.694162,232.222505 L729.811107,221.684048 L745.803658,215.187984 L750.746851,191.366097 L754.222323,187.518653 Z M503.125606,146.021378 L529.826914,166.632207 L476.274164,230.46124 L451.177265,210.148437 L503.125606,146.021378 Z M1130.9223,171.133963 L1170.12052,176.39759 L1120.63033,226.295603 L1097.465,205.462936 L1130.9223,171.133963 Z M648.732437,162.511386 L681.439075,176.576853 L668.014474,224.48056 L633.015504,216.398014 L648.732437,162.511386 Z M1180.58055,178.918484 L1188.2351,182.183321 L1176.74207,218.078609 L1151.36955,208.360283 L1180.58055,178.918484 Z M638.801235,163.710211 L624.018714,214.403706 L586.458515,206.464571 L564.855015,189.79306 L638.801235,163.710211 Z M1206.60514,154.980075 L1271.75848,177.038457 L1259.79039,209.404494 L1197.67333,182.882449 L1206.60514,154.980075 Z M473.177386,122.905342 L500.698825,144.148074 L448.79306,208.221354 L423.1875,187.487282 L473.177386,122.905342 Z M1072.84314,163.333757 L1127.1376,170.623062 L1095.18387,203.41485 L1066.49497,177.6121 L1072.84314,163.333757 Z M856.424964,180.220385 L854.865371,188.656977 L838.164729,202.039002 L833.028828,195.005148 L856.424964,180.220385 Z M768.101805,172.14008 L785.152011,190.568375 L770.914002,200.710211 L756.281613,185.233043 L768.101805,172.14008 Z M847.186168,157.657825 L856.579578,176.498425 L831.216025,192.524588 L819.935865,177.07431 L847.186168,157.657825 Z M247.966328,169.314438 L231.209666,192.401344 L226.884932,171.481286 L247.966328,169.314438 Z M736.103258,123.04203 L781.763929,135.937803 L780.029554,154.352653 L748.808563,188.937076 L728.901344,184.090237 L736.103258,123.04203 Z M781.940952,156.810804 L814.696887,169.511628 L787.672905,188.771257 L770.165577,169.85671 L781.940952,156.810804 Z M552.844356,143.96657 L568.505269,185.25321 L561.962149,187.556747 L534.227834,166.152677 L552.844356,143.96657 Z M446.733769,102.496185 L470.748365,121.029797 L420.801054,185.557958 L397.747759,166.89438 L446.733769,102.496185 Z M632.668181,113.090661 L644.786398,143.197977 L639.858891,160.082364 L571.398135,184.233648 L555.331638,141.878149 L632.668181,113.090661 Z M1193.4315,165.957728 L1189.17399,179.252362 L1182.90201,176.574612 L1193.4315,165.957728 Z M1167.05959,134.053295 L1196.10925,150.193738 L1172.82964,173.66382 L1133.59109,168.400194 L1167.05959,134.053295 Z M666.017926,103.255814 L699.347505,112.667151 L682.27265,173.592115 L649.599625,159.544574 L666.017926,103.255814 Z M218.618641,146.680172 L223.189862,168.778888 L202.489402,170.909884 L218.618641,146.680172 Z M250.350533,99.0162306 L282.927204,121.132873 L250.384145,165.982376 L226.25751,168.462936 L221.009569,143.09266 L250.350533,99.0162306 Z M1101.92866,97.8711846 L1164.28325,132.511628 L1129.80414,167.889293 L1074.14056,160.411761 L1101.92866,97.8711846 Z M784.762112,136.784823 L839.096899,152.125303 L817.688348,167.380632 L783.144259,153.989644 L784.762112,136.784823 Z M301.476502,100.797662 L343.697553,134.978743 L326.537548,158.144077 L254.480317,165.558866 L301.476502,100.797662 Z M537.519562,103.567284 L551.598474,140.679324 L531.798813,164.277132 L505.059411,143.637173 L537.519562,103.567284 Z M398.921936,65.590298 L439.448946,96.8762718 L390.592902,161.101926 L351.569465,129.508963 L398.921936,65.590298 Z M1025.7282,67.9408915 L1099.16352,96.558079 L1091.47759,113.857013 L1048.76133,93.8175872 L1047.45942,96.5939317 L1090.23171,116.655766 L1070.9788,159.988251 L988.078367,148.853743 L1025.7282,67.9408915 Z M857.827701,79.9089753 L891.040758,88.9169695 L876.235828,142.588481 L849.048268,142.588481 L842.296754,148.622941 L839.740007,148.513142 L857.827701,79.9089753 Z M817.585271,95.7469113 L848.494792,104.093871 L836.78664,148.291303 L807.080426,139.901768 L817.585271,95.7469113 Z M931.068072,85.1300266 L916.39983,142.588481 L879.413275,142.588481 L894.124092,88.6503149 L931.068072,85.1300266 Z M979.240673,45.3962573 L1017.27144,62.4643895 L979.709,142.588481 L949.447069,142.588481 L979.240673,45.3962573 Z M524.17563,68.3868096 L536.260235,100.250908 L502.63039,141.763869 L475.178416,120.572674 L524.17563,68.3868096 Z M782.814862,86.3512597 L814.625182,94.9469477 L804.124818,139.065952 L770.001999,129.430535 L782.814862,86.3512597 Z M585.833333,85.9187863 L600.248365,121.88578 L554.244852,139.009932 L540.002362,101.472141 L585.833333,85.9187863 Z M205.604106,68.6377786 L247.813953,97.2953004 L220.1379,138.873244 L205.604106,68.6377786 Z M656.111374,104.365007 L646.17345,138.434048 L635.54312,112.021802 L656.111374,104.365007 Z M747.493217,76.8121972 L779.859254,85.551296 L767.053113,128.59696 L736.661216,120.016957 L747.493217,76.8121972 Z M617.417333,75.2033067 L631.523135,110.247093 L603.118823,120.816921 L588.737403,84.9350775 L617.417333,75.2033067 Z M267.483648,73.2829457 L299.087815,98.8638566 L284.731044,118.652313 L252.049055,96.4662064 L267.483648,73.2829457 Z M679.148983,58.2225654 L712.321705,66.3566497 L700.174358,109.713784 L666.876151,100.309169 L679.148983,58.2225654 Z M669.800388,57.4293241 L657.180233,100.694586 L634.398074,109.173752 L620.323643,74.2151163 L669.800388,57.4293241 Z M70.7239583,1017.27816 L1.29966085,984.826974 L0,987.60556 L69.4041303,1020.05227 L69.2786458,1020.3122 L72.0437863,1021.63427 L72.1827156,1021.34969 L104.822129,1036.60726 L68.0932655,1116.68877 L53.1561289,1109.89916 L51.8878391,1112.68895 L66.8182534,1119.47632 L66.2042757,1120.81856 L68.9918241,1122.10029 L69.6102834,1120.74685 L98.6711483,1133.95185 L45.5329457,1249.26986 L53.8866279,1253.11955 L65.1421391,1228.69041 L67.0826672,1230.86622 L77.2340456,1221.88067 C94.6659969,1206.51803 130.268951,1175.4329 149.613372,1160.55233 L150.48056,1159.93611 L150.48056,1159.93611 L177.195313,1199.69901 L174.890452,1200.85762 C137.402855,1219.87143 107.824032,1243.0997 107.347505,1243.47741 L107.098777,1243.67684 L91.4109738,1273.47941 L94.1245761,1274.9068 L109.50539,1245.68235 L112.432877,1243.44962 C127.351137,1232.24314 191.890602,1185.91658 246.696623,1180.07667 L248.519804,1179.89711 C259.764111,1178.87978 270.849322,1176.64795 281.466206,1173.26211 C314.878694,1162.60713 336.170724,1142.90383 343.843205,1134.84817 L345.721053,1136.90509 C351.811452,1143.6482 356.154334,1149.20963 357.052689,1152.1247 C357.50645,1153.59242 357.552511,1155.68258 357.528028,1157.96596 L357.486379,1160.97408 C357.436767,1167.06351 357.865724,1174.74776 364.368883,1180.19513 C373.926354,1188.19536 393.631685,1188.88326 428.093184,1182.38332 L430.808442,1181.86228 C434.763445,1181.08921 438.512294,1180.47075 442.063953,1179.9957 C439.224867,1216.68647 409.971294,1266.40074 409.619489,1266.98783 L417.527253,1271.68229 L418.239318,1270.46586 C423.073231,1262.11459 449.103566,1215.59034 451.293786,1179.05681 C495.208609,1175.98338 504.714938,1197.6769 511.225704,1214.93315 L511.822129,1216.52065 C513.852289,1221.92993 515.60235,1226.60199 518.203912,1230.15141 C524.659641,1238.94876 549.142563,1252.7543 571.012718,1263.91346 L564.879663,1275.33703 L572.984617,1279.68865 L579.231953,1268.04772 L584.375714,1270.58117 C596.05962,1276.29157 605.315081,1280.52055 607.920845,1281.70088 L611.714511,1273.32255 L607.807514,1271.53357 C601.338223,1268.54531 592.774915,1264.47254 583.599261,1259.9114 L610.603077,1209.59884 L657.180233,1233.00842 L644.432352,1263.38687 L647.260235,1264.57673 L659.927447,1234.39099 L699.697069,1254.37664 L693.499031,1268.72892 L696.313469,1269.94344 L702.442042,1255.75696 L706.502362,1257.79609 L707.87821,1255.0556 L703.661034,1252.9358 L753.579215,1137.37803 L802.545058,1161.50914 L786.996185,1195.32049 L771.075339,1188.77737 L749.106589,1216.66406 L734.075339,1263.51011 L736.995094,1264.44677 L751.858285,1218.12954 L772.052326,1192.49261 L785.709969,1198.11028 L753.839147,1267.41358 L762.199552,1271.25654 L901.101926,969.222081 L926.400497,976.605499 L831.886022,1203.36719 L829.049176,1203.6204 L779.789789,1274.89559 L787.356953,1280.12785 L834.167151,1212.39759 L887.556323,1207.59557 L1023.80784,1273.47941 L1027.8099,1265.19519 L1018.82431,1260.84805 L1097.17817,1149.99146 L1212.12869,1199.83121 L1161.95954,1284.91194 L1164.5992,1286.4693 L1214.96106,1201.05917 L1297.58588,1236.88723 L1298.80711,1234.07504 L1216.52961,1198.39935 L1230.92672,1173.98365 L1297.56347,1204.29488 L1298.83176,1201.50509 L1232.49304,1171.33055 L1268.17545,1110.81341 L1311.10683,1130.42708 L1314.92515,1122.0622 L1163.71633,1052.9897 L1197.08848,979.986858 L1312.3796,1032.58279 L1313.65237,1029.793 L1226.04851,989.826187 L1233.48295,973.647458 C1238.02281,963.691908 1244.32876,949.748411 1252.02156,932.450642 L1332.85598,967.023861 L1334.06377,964.202701 L1253.2652,929.647408 L1258.89231,916.931872 C1261.48512,911.055215 1264.19804,904.880866 1267.02144,898.419695 C1269.80002,892.06032 1271.64868,885.954155 1272.73547,880.114644 L1326.57055,910.638748 L1328.08085,907.969961 L1273.25981,876.885659 C1275.78295,859.051175 1271.26999,843.851865 1264.7784,831.919634 L1294.99104,765.827398 L1292.20349,764.552386 L1262.90286,828.648074 C1254.39008,814.524346 1243.54687,805.574612 1240.20809,803.015625 L1266.48141,742.857013 L1347.65643,778.853137 L1348.90007,776.052144 L1267.70936,740.047057 L1282.40225,706.406008 L1315.61755,720.339268 L1316.80517,717.513626 L1283.63021,703.596051 L1291.16824,686.33297 L1288.36053,685.105015 L1280.80457,702.40843 L1215.89771,675.178295 L1233.85544,633.712391 L1304.54803,661.760417 L1307.94059,653.211785 L1237.51466,625.269077 L1288.5734,507.387597 L1337.48098,527.310501 L1338.63723,524.469174 L1289.79239,504.573159 L1303.95197,471.888929 L1295.50866,468.231953 L1281.27065,501.104409 L1261.21106,492.932231 L1299.19253,460.494489 L1297.2027,458.159581 L1258.01569,491.628089 L1171.68683,456.46554 L1188.746,410.338784 L1322.2503,454.139595 L1323.20488,451.226562 L1189.81038,407.461604 L1200.55275,378.414184 L1405.03422,446.218387 L1406,443.307594 L1201.61489,375.539244 L1212.56789,345.922662 L1347.7864,391.802931 L1348.77235,388.898861 L1213.63451,343.047723 L1223.43126,316.554809 L1326.79239,354.977713 L1327.86125,352.102774 L1224.4934,313.677628 L1235.74891,283.243156 L1312.50957,310.175266 L1313.52241,307.282401 L1236.81105,280.370458 L1248.4699,248.84696 L1317.58049,275.326429 L1318.67624,272.467175 L1249.53428,245.97202 L1261.54494,213.491703 L1355.85326,253.763263 L1357.05881,250.942103 L1262.61156,210.612282 L1274.66479,178.022166 L1331.98431,197.429687 L1334.93544,188.717478 L1277.85568,169.390625 L1291.20185,133.300388 L1288.32691,132.23601 L1274.95161,168.406916 L1213.82498,147.710937 L1304.37773,85.4549419 L1299.16788,77.8743338 L1203.39632,143.715601 L1173.71475,127.227834 L1287.79585,10.166485 L1285.60211,8.02652616 L1170.93393,125.688408 L1105.30778,89.2261991 L1125.35841,29.0003634 L1122.44985,28.0323401 L1102.49782,87.9825581 L1029.61374,59.5872093 L1055.53077,3.87881541 L1047.19277,-7.95807864e-13 L1021.15474,55.9616037 L981.934109,37.730499 L984.587209,28.9622699 L981.654009,28.0704336 L979.124152,36.4263566 L953.133176,24.3439922 L949.256601,32.6864704 L976.432958,45.3178295 L957.197977,108.842115 L947.591691,105.635538 L946.623668,108.544089 L956.310623,110.551841 L946.240492,142.588481 L919.559351,142.588481 L948.595567,27.6603682 L945.624273,27.5348837 L931.861313,82.8735465 L894.982316,87.1512234 L912.175933,23.4700824 L909.215843,22.710453 L891.838481,87.1557049 L858.611979,77.8474443 L876.148437,11.6588542 L873.186107,10.8745761 L849.27907,101.131541 L818.295603,92.7599322 L832.316255,33.8561652 L829.331516,33.1435925 L815.335514,91.9599685 L783.693253,83.413578 L796.396318,40.7062742 L793.458636,39.8323643 L780.733164,82.6136143 L748.239402,73.8341812 L759.506117,28.8860828 L756.532582,28.1443798 L733.71009,119.181141 L703.125484,110.547359 L722.701066,40.6816255 L719.747699,39.8570131 L713.150799,63.4032825 L680.009448,55.2759205 L690.122154,20.6063469 L681.291182,18.0294331 L670.849079,53.8328488 L619.178597,71.3670664 L607.405463,42.126938 L604.559654,43.2697432 L616.270046,72.353016 L538.915577,98.6016836 L526.508297,65.9017684 L547.311834,43.7492733 L545.07328,41.6474079 L525.296027,62.7086361 L516.579336,39.7248062 L513.71336,40.8138324 L522.961119,65.1959181 L472.73595,118.688166 L448.591388,100.051478 L493.891291,40.5001211 L486.570615,34.9317466 L441.311047,94.4338057 L400.748183,63.1254239 L418.896378,38.6268169 L416.431504,36.8005693 L398.319162,61.2521197 L376.184593,44.1638203 L374.311289,46.5950824 L396.492914,63.7147529 L349.183018,127.58188 L306.88578,93.3380572 L349.655826,34.3984375 L347.175266,32.6013203 L325.013808,63.1411095 L285.963481,36.4465237 L284.233588,38.9808624 L323.209969,65.6239099 L304.499334,91.4064922 L211.02907,15.7438227 L205.238857,22.8941982 L265.09272,71.3424176 L249.514717,94.7452762 L204.714511,64.3264898 L199.670482,39.9600896 L196.667817,40.5807897 L217.746972,142.460756 L198.53664,171.313227 L158.316618,175.456456 L122.997214,37.3338784 L120.028161,38.0935078 L155.235526,175.774649 L116.066437,179.801357 L86.2190528,37.4011022 L83.2163881,38.0285247 L112.998789,180.119549 L76.3573159,183.890807 L53.7835514,140.854106 L45.6360223,145.125061 L66.5045422,184.901405 L25.5338542,189.120821 L25.8475654,192.170543 L68.0350048,187.830124 L137.286761,319.851017 L73.2963905,369.708697 L75.1786579,372.128755 L139.119731,322.313651 L171.003997,355.239886 L63.1433503,430.474564 L64.8978924,432.988735 L173.166364,356.393895 L206.478016,389.710029 L151.316376,389.710029 L46.816921,475.241158 L52.598171,482.933806 L92.1526768,451.237766 L96.3989826,508.106892 L38.9001938,511.066982 L39.0570494,514.16376 L96.6275436,511.279857 L103.69501,605.695736 L15.8760296,611.620397 L16.0821827,614.676841 L103.925812,608.767866 L107.564862,657.39983 L72.1423813,681.582485 L59.0651042,681.123123 L58.7469113,690.317103 L110.094719,692.11422 L112.299661,747.136931 L85.7305596,789.707546 L74.0358527,791.264898 L74.4414365,794.305656 L83.6242127,793.079942 L68.3845688,817.49564 L64.6155523,815.904675 L63.4234496,818.728077 L66.7420664,820.130814 L57.6063469,834.767684 L60.2079094,836.390019 L69.6058018,821.338602 L115.533127,840.741642 L79.6490431,923.767563 L78.4390141,923.232013 L77.1976139,926.039729 L78.4300509,926.582001 L57.5010296,975.005572 L60.3177083,976.220082 L81.2377665,927.82116 L107.804627,939.547238 L70.7239583,1017.27816 Z" id="bg-map"></path>
                    </g>
                </g>
            </g>
        </g>
    </g>
</svg>